<?xml version="1.0" encoding="UTF-8"?>
<svg id="Layer_1" data-name="Layer 1" xmlns="http://www.w3.org/2000/svg" viewBox="0 0 455.31 720.58">
  <path d="M257.64.25c6.49-.77,12.51.29,18.63,2.49,12.63,4.54,37.25,19.97,45.28,30.98,5.61,7.69,12.26,29.62,16.23,39.45,8.51,21.48,17.68,42.68,27.52,63.59-7.55,9.91-22.54,27.6-26.64,38.49,11.67,5.36,27.09,15.38,37.99,22.63,11.82,7.86,23.57,16.95,29.08,30.49,4.7,11.53,5.83,24.28,7.6,36.5,2.89,19.85,5.05,39.75,7.61,59.64,7.93,65.52,16.56,130.95,25.9,196.28,2.91,19.38,4.63,38.82,8.47,58.06-17.21,14.79-37.1,27.56-55.04,41.75l-65.36,52.35c-14.51,11.61-29.29,25.79-46.2,33.91-1.43-.64-2.75-1.45-4.09-2.24-6.1-4.66-12.74-8.74-19.08-13.08-7.49-5.19-14.89-10.51-22.2-15.95-25.08-18.49-49.38-37.96-74.2-56.78-13.88-10.52-39.21-27.94-49.66-40.3-15.28-18.08-28.28-88.22-30.63-113.86-2.81-30.69-1.61-62.17-1.54-92.98l.23-50.03c.12-9.58.06-19.22.83-28.77,8.82-1.04,12.25-8,17.57-14.01,4.93-5.57,13.6,2.54,19.96,1.81,1.62-.18,2.09-1.67,2.5-3.04,1.49-5.04,1.6-10.7,2.03-15.93.99-11.99,1.59-24.39,5.18-35.94,6.27-20.15,23.78-31.73,40.17-43.33,3.28-2.32,8.48-5.07,10.86-8.26-1.26-5.54-20.33-29.03-24.77-37.62l-.34-.67c6.69-22.01,17.72-42.66,26.53-63.85,3.97-9.56,10.72-30.43,15.61-37.96,5.44-8.39,30.29-24.04,39.69-28.68,4.63-2.29,9.24-3.99,14.27-5.18ZM236.31,210.81c-11.4-7.59-21.8-16.71-34.59-22.1-12.41,6.41-34.44,19.19-42.95,29.89-2.47,3.1-3.93,6.45-5.12,10.19-4.41,13.88-8.25,44.47-8.36,59.04,8.74,5.72,17,10.29,24.4,17.86.4,5.49.77,10.98,1.11,16.48-5.33-1.61-10.32-4.45-15.23-7.04-13.19-6.94-28.05-16.43-42.89-18.74,2.78,23.65,6.33,47.15,8.52,70.89,1.42,15.33,1.91,30.79,2.95,46.15,1.27,17.35,2.73,34.68,4.37,52,1.1,12.34,2.08,24.7,2.94,37.06.92,12.35,1.51,25.32,4.72,37.33,1.05-15.09.74-30.33.89-45.44l.85-76.56c.19-12.39-.28-28.63,1.05-40.64.3-2.67.89-4.81,2.45-7h.64c5.3,7.28,9.48,34.42,13.29,45.03.33-9.81.73-68.98,2.43-72.43,1.23-.65,2.43-.52,3.75-.07,6.49,2.27,10.71,12.42,13.2,18.27,1.19,2.79,2.22,5.66,3.88,8.21,4.34-16.16-1.63-82,9.18-88.59.59-.36.67-.34,1.25-.47,1.52.61,2.19,1.54,2.83,3.03.11.26.22.52.32.78,1.98,5.79,8.12,35.04,11.9,36.75.55.25,1.12.43,1.69.62l2.09.71c1.39,1.67,1.44,4.56,1.57,6.72.95,15.22.12,30.99.09,46.27l-.84,99.27-.29,22.75c-.04,2.86-.62,6.41-.07,9.15l.54-.34c2.08-14.4,3.24-28.9,4.78-43.36,2.15-20.25,4.48-40.45,5.78-60.78.83-13.85,1.54-27.72,2.11-41.58.57-13.4-.14-30.42,3.84-42.96.92,2.28,1.79,4.58,2.62,6.9,6.54,3.62,14.35,5.07,19.81,10.4,1.35,7.88,1.3,16.09,1.51,24.07l.69,31.88c.49,31.75,1.2,63.51,2.12,95.25.38,12.28-.17,29.27,2.18,40.84,1.41-20.63,3.73-41.2,5.19-61.83,1.07-15.15,1.38-30.4,1.79-45.58.78-29.64,1.3-59.28,1.57-88.92.18-16.74-.18-33.64.72-50.35.21-3.8.28-8.33,3.42-10.94,2.46-2.05,5.38-3.5,7.81-5.57,4.83-4.11,8.75-10.3,12.91-15.14,3.76-4.38,8.06-8.5,11.44-13.17-2.44-3.74-4.79-6.27-9.37-7.31-4.21-.95-8.84-.38-13.11-.1.1-.21.19-.41.29-.62,6.32-13.05,20.84-28.33,29.93-39.94,5.21-6.65,36.56-47.31,34.98-53.95-.68-2.86-12.04-16.4-14.43-19.77-20.89-29.42-27.28-50.97-62.74-68.76.4-6.41,2.31-21.64.52-26.99-1.39-.78-2-.49-3.55-.31-10.88,3.99-35.89,16.72-43.21,26.01-1.17,1.48-1.95,3.28-2.74,4.99-5.21,11.23-9.11,23.21-13.98,34.61l-14.18,32.9c-2.34,5.53-5.17,11.1-6.61,16.94-.03.14-.07.28-.11.42,2.53,6.29,7.01,12.15,10.92,17.66,8.14,11.47,16.81,22.51,25.49,33.56,6.49,8.26,14.46,17.02,19.06,26.48ZM289.99,654.31c4.45-36.77,10.41-73.44,13.94-110.31,2.99-33.54,5.28-67.13,6.87-100.77,1.59-33.64,2.49-67.29,2.68-100.97.43-20.74.39-41.49-.12-62.23-.21-8.12.11-16.86-1.28-24.85l-.79-.83c-4.17,12.32-4.73,29.06-5.89,42.13-2.27,26.81-4.14,53.66-5.61,80.53l-4.47,72.97c-1.11,16.37-2.53,32.73-3.33,49.12-1.79,43.23-2.71,86.49-2.75,129.76,0,5.09-.86,22.61.28,26.13l.48-.68ZM378.62,580.1l.47.37c1.2-4.12.31-12.13.3-16.73-.27-83.46-6.03-167.17-13.31-250.29-.77-8.79-3.16-42.83-5.65-48.97-4,13.6-2.97,46.17-2.61,61.35,1.73,57.14,5.5,114.15,11.3,171.02,2.84,27.79,6.46,55.5,9.5,83.26Z"/>
  <path d="M261.46,53.78c.57-.08,1.14-.15,1.71-.18,7.37-.37,17.78,7.15,22.99,11.86,4.54,4.1,8.48,8.81,12.2,13.65,6.3,8.21,32.41,45.9,31.74,54.11-.28,3.45-5.45,9-7.44,11.92-3.33,4.88-6.37,9.96-9.77,14.8-10.94,15.24-22.34,30.13-34.2,44.67-4.44,5.48-8.51,11.41-13.39,16.5-6.16-4.24-11.55-11.47-16.32-17.23-10.55-12.83-20.71-25.96-30.48-39.4-7.4-10.23-14.39-21.3-22.92-30.62,5.37-10.73,11.6-20.93,18.04-31.05,13.8-21.68,24.33-36.83,47.84-49.03ZM226.85,107.15c-.11,24.07.54,42.29,18.06,60.74,5.56,4.67,11.58,9.17,19.3,8.6,4.73-.35,8.47-2.51,12.37-4.98-.72.87-1.78,1.97-3.25,3.02-1.48,1.05-2.89,1.68-3.95,2.07-.43-17.17-.8-34.42-1.13-51.76-.27-14.31-.5-28.57-.69-42.77l-.65-.14c-14.87,2.4-27.08,6.99-36.3,19.66-1.31,1.81-2.54,3.68-3.77,5.55Z"/>
  <path d="M41.85,155.19c12.2-.23,24.4-.32,36.6-.29,10.65.01,21.41-.2,31.98,1.21-3.51,5.22-6.83,11.55-11.14,16.1-1.77.56-3.6.96-5.41,1.4-2.86,5.23-3.33,12.8-7.44,17.15-3.52,3.72-8.56,3.26-13.23,3.26.59,4.8.23,17.61,2,21.17,4.39,1.61,11.69-1.33,16.33-1.95,3.87-.51,8.16-.68,12.04-.3,2.47.24,4.19.79,5.77,2.73.86,3.03.59,5.96.26,9.05-.62,5.94-2.14,22.84-6.5,26.55-2.06,1.75-5.52,1.73-7.41,3.73-.09.09-.68.92-.69,1.17-.12,2.72,2.19,6.72,2.11,10.09-.08,3.52-1.77,6.69-4.31,9.09-4.3,4.06-10.51,5.75-16.28,5.73-2.91,13.12-1.85,29.95-1.98,43.6-.2,26.33-.27,52.67-.2,79.01l.24,286.4c.28,8.75.09,17.55.09,26.3-1.61,1.88-3.3,3.35-5.77,3.86-2.8.58-6.05.52-8.46-1.2-.92-.65-1.81-1.69-2.28-2.71-.81-1.77-.86-4.11-.95-6.04-.61-13.9-.4-27.96-.5-41.87l-.14-85.96-.26-220.91-.1-50.59c-.03-9.33.68-19.3-.71-28.51-1.87-2.02-9.2-.73-12.14-.96-3.14-.25-6.24-2.33-8.24-4.68-1.54-1.81-2.32-3.64-2.75-5.96-1.69-9.07-1.3-37.87-.57-47.96.21-.32.43-.64.67-.94,5.72-7.62,14.66-6.28,23.17-7.6,1.31-6.66,1.58-13.6,2.15-20.36-3.61.08-7.08.1-10.15-2.07-5.39-3.82-5.63-12.69-6.49-18.71-1.78.17-3.73.53-5.49.07-5.84-1.53-11.15-12.21-14.23-17.02,6.81-.69,13.54-.91,20.38-1.06ZM73.53,245.88c2.68.04,9.55.69,11.37-1.66.95-1.23.94-4.29.72-5.81-6.74-.83-14.16-.26-20.97-.1-3.99.11-11.37-.34-14.39,2.48-.12.11-.21.25-.32.37.42,1.24,1,1.65,2.12,2.25,5.8,3.15,15,2.1,21.47,2.46ZM69.49,265.86c3.18.06,9.47,1.1,11.95-1.07.73-.63.74-1.3,1-2.19-.32-1.3-.34-1.72-1.51-2.52-3.09-2.09-11.66-.89-15.4-.74-4.08.24-9.73-.1-13.26,2.05-.62,1.17-.54,1.11-.18,2.4,1.74,1.88,4.16,2.11,6.61,2.18,3.58.1,7.21-.05,10.79-.12Z"/>
  <path d="M11.77,124.14c21.5-.95,43.27-.38,64.8-.37,15.89,0,32.53-.93,48.33.7,1.86.19,3.72.32,5.2,1.57,1.28,2.01,1.16,4.88.76,7.15-1.1,6.24-7.53,9.48-12.34,12.7-20.43.62-41.06.04-61.51,0-11.36-.01-28.45,1.01-39.12-.7-4.13-.66-8.22-2.48-11.66-4.86-3.28-2.28-5.54-5.23-6.08-9.26-.24-1.82-.35-4.2,1.06-5.61,2.02-2.02,7.82-1.28,10.57-1.33Z"/>
</svg>